<?xml version="1.0" standalone="no"?>
<!DOCTYPE svg PUBLIC "-//W3C//DTD SVG 20010904//EN"
 "http://www.w3.org/TR/2001/REC-SVG-20010904/DTD/svg10.dtd">
<svg version="1.0" xmlns="http://www.w3.org/2000/svg"
 width="512px" height="512px" viewBox="0 0 840.000000 873.000000"
 preserveAspectRatio="xMidYMid meet">
<defs>
        <linearGradient id = "g1" x1 = "50%" y1 = "0%" x2 = "0%" y2 = "100%">
            <stop stop-color = "black" offset = "0%"/>
            <stop stop-color = "teal" offset = "50%"/>
            <stop stop-color = "white" offset = "100%"/>
        </linearGradient>
    </defs>
<g transform="translate(0.000000,873.000000) scale(0.100000,-0.100000)"
fill = "url(#g1)" stroke="none">
<path d="M3810 8299 c-122 -14 -288 -40 -395 -61 -55 -11 -118 -24 -141 -29
-71 -14 -225 -58 -361 -105 -983 -332 -1811 -1051 -2273 -1974 -151 -301 -247
-565 -319 -879 -51 -217 -91 -505 -91 -646 0 -51 -5 -96 -11 -102 -16 -16 0
-362 31 -642 6 -58 13 -108 15 -111 2 -3 11 -50 19 -103 45 -278 170 -666 309
-962 159 -337 436 -750 658 -980 37 -38 77 -82 88 -96 11 -15 80 -80 153 -145
73 -66 135 -121 138 -125 13 -14 163 -130 235 -181 44 -32 91 -65 105 -75 103
-74 419 -251 555 -311 55 -24 118 -52 140 -62 59 -27 315 -117 398 -141 643
-183 1274 -212 1912 -88 1221 239 2260 1034 2808 2149 150 306 242 572 321
935 17 77 38 207 62 390 20 147 31 599 16 618 -6 7 -11 42 -11 77 0 71 -21
257 -45 390 -70 397 -182 733 -365 1095 -187 368 -391 656 -672 949 -222 231
-405 385 -668 561 -551 369 -1160 586 -1839 655 -120 12 -662 11 -772 -1z
m443 -736 c170 -80 279 -269 281 -483 0 -104 -15 -173 -62 -268 -136 -282
-468 -346 -681 -133 -60 60 -120 168 -140 255 -19 79 -15 242 8 316 36 114
119 232 200 282 85 53 141 69 236 66 77 -3 100 -8 158 -35z m-902 -928 c104
-45 148 -139 175 -369 19 -163 43 -272 88 -403 105 -300 261 -570 441 -762 43
-44 81 -81 85 -81 11 0 122 116 176 185 226 289 399 693 434 1016 35 324 104
429 280 429 125 0 212 -72 249 -204 8 -32 6 -71 -10 -185 -22 -160 -51 -256
-151 -506 -160 -397 -334 -666 -591 -911 -52 -50 -92 -96 -88 -101 14 -22 224
-180 341 -258 69 -45 196 -124 282 -175 307 -181 416 -301 302 -332 -46 -12
-142 8 -342 74 -341 111 -539 209 -792 394 l-85 62 -55 -40 c-257 -188 -553
-339 -776 -398 -85 -22 -212 -28 -255 -12 -66 26 -78 80 -28 136 37 43 123 98
257 165 56 28 135 72 175 97 66 42 289 207 362 268 l30 24 -140 144 c-287 292
-427 530 -613 1038 -70 192 -95 306 -96 445 -1 92 1 104 26 146 30 52 77 95
123 115 41 18 155 17 196 -1z m999 -2584 c178 -67 260 -191 260 -393 0 -322
-140 -647 -321 -744 -47 -25 -158 -25 -224 0 -164 63 -318 230 -398 434 -39
99 -48 242 -23 342 48 190 190 335 369 376 89 20 265 12 337 -15z m-874 -731
c18 -63 43 -113 113 -229 28 -46 51 -88 51 -92 0 -10 -37 -22 -570 -173 -511
-146 -474 -135 -468 -142 6 -5 369 17 648 41 789 67 1199 58 1472 -31 68 -22
107 -44 80 -44 -69 0 -295 -26 -392 -46 -187 -37 -275 -62 -820 -234 -238 -75
-416 -122 -575 -152 -107 -20 -149 -22 -395 -22 -457 2 -807 54 -983 147 -103
54 -121 104 -66 189 105 164 558 463 1218 806 125 65 259 124 415 182 l231 87
13 -116 c6 -64 19 -141 28 -171z m1525 201 c112 -44 267 -112 344 -153 77 -40
284 -143 460 -229 625 -305 876 -462 935 -584 29 -61 21 -88 -45 -151 -100
-95 -238 -144 -456 -163 -123 -10 -209 -7 -524 19 -329 28 -1229 39 -1689 21
-92 -3 -172 -3 -177 0 -15 9 130 87 251 135 224 90 550 163 910 204 145 16
457 40 532 40 106 0 112 10 22 37 -218 65 -594 147 -867 189 l-118 18 6 25 c3
14 34 69 69 121 35 52 71 109 79 125 34 68 50 159 51 292 0 73 4 133 7 133 4
0 98 -36 210 -79z m1880 -1462 c24 -12 49 -67 49 -104 0 -34 -24 -80 -52 -99
-20 -14 -287 -16 -2670 -16 -1979 0 -2653 3 -2672 12 -55 24 -78 101 -49 158
36 71 -205 65 2726 63 1876 -2 2654 -6 2668 -14z"/>
</g>
</svg>
